HIERARCHY
ROOT hip
{
	OFFSET 0.000000 0.000000 0.000000 
	CHANNELS 6 Xposition Yposition Zposition Xrotation Zrotation Yrotation
	JOINT abdomen
	{
		OFFSET 0.000000 3.402643 0.000000 
		CHANNELS 3 Xrotation Zrotation Yrotation
		JOINT chest
		{
			OFFSET 0.000000 8.438565 -0.680529 
			CHANNELS 3 Xrotation Zrotation Yrotation
			JOINT neck
			{
				OFFSET 0.000000 10.207942 -0.272212 
				CHANNELS 3 Xrotation Zrotation Yrotation
				JOINT head
				{
					OFFSET 0.000000 3.130431 0.000000 
					CHANNELS 3 Xrotation Zrotation Yrotation
					End Site
					{
						OFFSET 0.000000 3.130435 0.000000 
					}
				}
			}
			JOINT lCollar
			{
				OFFSET 3.470700 6.669187 -0.816635 
				CHANNELS 3 Yrotation Zrotation Xrotation
				JOINT lShldr
				{
					OFFSET 3.198488 0.000000 0.000000 
					CHANNELS 3 Zrotation Yrotation Xrotation
					JOINT lForeArm
					{
						OFFSET 10.139888 0.000000 0.000000 
						CHANNELS 3 Yrotation Zrotation Xrotation
						JOINT lHand
						{
							OFFSET 8.370511 0.000000 0.000000 
							CHANNELS 3 Zrotation Yrotation Xrotation
							End Site
							{
								OFFSET 4.083176 0.000000 0.000000 
							}
						}
					}
				}
			}
			JOINT rCollar
			{
				OFFSET -3.470700 6.669187 -0.816635 
				CHANNELS 3 Yrotation Zrotation Xrotation
				JOINT rShldr
				{
					OFFSET -3.198488 0.000000 0.000000 
					CHANNELS 3 Zrotation Yrotation Xrotation
					JOINT rForeArm
					{
						OFFSET -10.139888 0.000000 0.000000 
						CHANNELS 3 Yrotation Zrotation Xrotation
						JOINT rHand
						{
							OFFSET -8.370511 0.000000 0.000000 
							CHANNELS 3 Zrotation Yrotation Xrotation
							End Site
							{
								OFFSET -4.083176 0.000000 0.000000 
							}
						}
					}
				}
			}
		}
	}
	JOINT lThigh
	{
		OFFSET 5.308129 -1.633274 1.361059 
		CHANNELS 3 Xrotation Zrotation Yrotation
		JOINT lShin
		{
			OFFSET -2.041588 -20.007561 0.000000 
			CHANNELS 3 Xrotation Zrotation Yrotation
			JOINT lFoot
			{
				OFFSET 0.000000 -19.190928 -1.224953 
				CHANNELS 3 Xrotation Yrotation Zrotation
				End Site
				{
					OFFSET 0.000000 -2.449906 4.627600 
				}
			}
		}
	}
	JOINT rThigh
	{
		OFFSET -5.308129 -1.633274 1.361059 
		CHANNELS 3 Xrotation Zrotation Yrotation
		JOINT rShin
		{
			OFFSET 2.041588 -20.007561 0.000000 
			CHANNELS 3 Xrotation Zrotation Yrotation
			JOINT rFoot
			{
				OFFSET 0.000000 -19.190928 -1.224953 
				CHANNELS 3 Xrotation Yrotation Zrotation
				End Site
				{
					OFFSET 0.000000 -2.449906 4.627600 
				}
			}
		}
	}
}
MOTION
Frames: 18
Frame Time: 0.016667
-20.588902 44.288437 -15.561833 -5.410280 -0.388885 -3.332310 -16.048201 -0.065551 2.987200 19.599400 1.201000 1.356890 17.219801 -12.509600 3.922500 12.932200 0.656912 2.654340 2.000000 -2.000000 0.000000 -80.359802 -2.517680 -171.000000 49.697701 -0.303280 0.104321 0.072141 -0.073332 -164.119003 -2.000000 2.000000 0.000000 77.858002 -4.157880 166.639999 -40.537498 0.318751 0.088862 -0.055691 0.020319 -144.197006 -20.415783 8.393128 -20.658613 42.803020 3.166934 2.743059 -11.045140 17.465508 3.953322 -13.895910 -1.403193 7.305461 40.842495 -2.687383 -2.811590 -15.968178 -4.183037 -2.307135 
-21.548944 44.342571 -15.804483 -5.625010 -0.126342 -1.969980 -15.824700 -0.162460 2.949430 19.697100 1.122920 1.321050 17.441799 -12.154500 3.486520 12.971700 0.762872 2.437150 2.000000 -2.000000 0.000000 -80.525398 -3.217930 -169.778000 48.291500 -0.305812 0.102120 0.072128 -0.073308 -164.108994 -2.000000 2.000000 0.000000 78.140404 -4.593690 165.067001 -40.127399 0.319384 0.088116 -0.055492 0.018690 -143.610992 -20.927858 7.355774 -16.427490 46.357048 2.867206 2.973644 -14.817877 17.781586 4.738052 -13.900948 -1.200156 5.273287 41.217598 -2.652137 -2.831265 -16.414665 -2.789812 -1.920519 
-22.441584 44.459492 -16.063423 -5.527400 -0.262446 -0.746087 -15.997700 -0.068144 2.480490 19.267200 1.386370 1.111380 17.499201 -11.803600 3.377800 12.943000 0.907704 2.361850 2.000000 -2.000000 0.000000 -80.613098 -2.933760 -169.367996 47.373501 -0.307436 0.100650 0.071484 -0.072040 -163.600998 -2.000000 2.000000 0.000000 77.837601 -5.062010 164.880005 -39.541401 0.320280 0.087042 -0.055629 0.019831 -144.020996 -21.462402 6.698637 -12.044636 49.992264 2.441164 3.240076 -15.408270 17.656466 4.753969 -14.082229 -0.564192 3.193831 41.028324 -2.566895 -2.853066 -15.882546 -2.555793 -1.808017 
-23.313326 44.555138 -16.327868 -5.234480 -0.369546 0.678386 -16.112301 -0.012179 1.908830 19.130199 1.747510 0.825653 17.871300 -12.134500 3.398000 13.137800 0.781458 2.403390 2.000000 -2.000000 0.000000 -80.837502 -3.001390 -169.056000 46.250500 -0.309390 0.098816 0.069724 -0.068426 -162.166000 -2.000000 2.000000 0.000000 77.768898 -5.558490 164.195999 -39.433998 0.320443 0.086844 -0.055511 0.018853 -143.669998 -21.969618 5.793674 -8.151814 54.033394 1.981437 3.501845 -16.091156 16.941311 4.555389 -14.382536 -0.025869 0.674452 40.866581 -2.516442 -2.886563 -15.505062 -2.897836 -1.828164 
-24.145304 44.698101 -16.528728 -5.010080 -0.642069 1.755500 -16.126301 0.197865 1.442840 19.354601 2.157730 0.628597 17.804899 -12.316700 3.333480 13.078700 0.675628 2.385660 2.000000 -2.000000 0.000000 -81.570198 -2.602310 -169.613007 45.498501 -0.310678 0.097567 0.066656 -0.061501 -159.460999 -2.000000 2.000000 0.000000 77.504997 -6.182250 163.656998 -39.658600 0.320101 0.087257 -0.055761 0.020861 -144.391998 -22.074905 4.924419 -4.289635 58.587101 1.541678 3.771156 -15.847922 15.594890 3.960764 -14.646628 0.571643 -1.874452 40.608711 -2.431323 -2.910324 -14.952639 -2.366221 -1.590125 
-24.891567 44.823265 -16.714424 -4.767620 -1.654420 2.169160 -16.139099 0.469363 1.029890 19.628300 2.079810 0.474141 17.517500 -12.077500 3.479640 12.952200 0.791894 2.431680 2.000000 -2.000000 0.000000 -82.439796 -2.439530 -170.990997 44.277802 -0.312733 0.095504 0.065330 -0.058203 -158.190994 -2.000000 2.000000 0.000000 77.465797 -6.786780 163.246002 -39.990601 0.319594 0.087866 -0.056080 0.023164 -145.223007 -21.454483 4.704036 -0.397925 63.135597 1.111630 3.993720 -14.830952 14.041651 3.151260 -15.195392 1.874571 -4.133933 40.595821 -2.340912 -2.937205 -14.452221 -1.570574 -1.284657 
-25.654455 44.906029 -16.973139 -4.340790 -2.707070 2.861430 -16.417000 0.805013 0.260383 19.501101 2.353120 0.161770 16.808399 -12.160500 3.672410 12.581000 0.754832 2.508610 2.000000 -2.000000 0.000000 96.934799 -178.007004 7.846240 42.939899 -0.314935 0.093192 0.064685 -0.066283 -157.546997 -2.000000 2.000000 0.000000 77.222099 -7.656260 163.389999 -40.625401 0.318614 0.089021 -0.056692 0.027026 -146.619003 -20.943123 4.448865 3.136054 67.093300 0.740806 4.187702 -12.036347 10.380242 1.717394 -16.100004 3.078779 -6.397975 40.702286 -2.226041 -2.981923 -12.763556 -0.737292 -0.923398 
-26.376453 45.029518 -17.199276 -4.009410 -3.000460 3.608360 -16.436899 0.787874 -0.506602 19.706200 2.558310 -0.203942 16.919701 -12.600000 4.065160 12.795200 0.589883 2.730220 2.000000 -2.000000 0.000000 96.514397 -177.983994 6.244720 41.582401 -0.317113 0.090796 0.054274 -0.054773 -156.882996 -2.000000 2.000000 0.000000 77.280403 -8.016490 162.910995 -41.250401 0.317637 0.090148 -0.057085 0.029234 -147.419998 -19.698708 3.212729 6.649171 69.931465 0.434290 4.303692 -6.282406 6.144608 0.433328 -17.037088 3.180178 -8.288995 41.285271 -2.159235 -3.033052 -11.484066 1.858685 -0.245699 
-27.133163 45.069611 -17.517641 -3.376730 -3.841000 4.327510 -16.551901 1.055070 -1.431290 19.852600 2.978290 -0.612706 16.225401 -12.663600 4.517570 12.590300 0.638915 2.901410 2.000000 -2.000000 0.000000 95.527496 -177.763000 3.715910 40.078499 -0.319459 0.088081 0.052102 -0.048377 -154.470993 -2.000000 2.000000 0.000000 77.416100 -8.003640 161.552994 -41.133202 0.317821 0.089937 -0.056842 0.027888 -146.932007 -18.616188 2.417273 9.594461 71.432526 0.302438 4.346750 1.621675 2.349887 0.115632 -18.408154 3.954793 -9.082726 41.772606 -2.064110 -3.104146 -10.118944 4.865505 0.378724 
-27.837524 45.138062 -17.753551 -3.093110 -3.900580 4.311690 -16.336000 1.092090 -1.608820 20.419701 3.037100 -0.681072 15.958300 -13.294800 4.550860 12.608800 0.329852 2.923250 2.000000 -2.000000 0.000000 95.009697 -176.705002 2.234430 37.793400 -0.322886 0.083840 0.050557 -0.043188 -152.537003 -2.000000 2.000000 0.000000 77.952003 -8.263590 159.901993 -41.670300 0.316974 0.090899 -0.057181 0.029745 -147.604996 -16.488293 0.609509 13.022506 70.834801 0.340252 4.336963 9.546098 -2.356198 0.914040 -19.558857 3.855978 -8.494342 42.668262 -2.003176 -3.167726 -8.952716 10.037152 1.201793 
-28.527393 45.085083 -18.014851 -2.630740 -3.072940 4.408500 -16.575399 0.840761 -1.947670 20.204500 3.417900 -0.890101 15.500000 -13.787900 4.888360 12.491100 0.165996 3.073860 2.000000 -2.000000 0.000000 94.609001 -175.977997 0.507643 35.576500 -0.326046 0.079599 0.049898 -0.040760 -151.639008 -2.000000 2.000000 0.000000 78.410103 -8.866160 158.602005 -41.445702 0.317329 0.090498 -0.057351 0.030631 -147.927994 -14.110975 -2.626999 16.033569 68.166527 0.554342 4.248578 14.768564 -6.202896 2.197742 -20.964415 2.796812 -6.939522 43.746456 -1.989508 -3.213902 -7.532039 16.653122 1.909192 
-29.238941 44.960812 -18.246828 -2.121950 -2.947200 4.308230 -16.826900 0.936737 -2.248200 20.135799 3.818260 -1.024060 14.234800 -13.831400 5.136340 11.895500 0.186832 3.133400 2.000000 -2.000000 0.000000 93.778999 -175.914001 -1.796900 34.502300 -0.327517 0.077500 0.049631 -0.039728 -151.257996 -2.000000 2.000000 0.000000 78.760803 -9.664030 157.281998 -41.162498 0.317775 0.089990 -0.057283 0.030282 -147.800995 -11.570107 -5.050444 19.082970 64.212395 0.876755 4.099772 14.243841 -8.010533 2.232418 -22.007156 2.650893 -5.366655 44.129433 -1.976292 -3.238319 -4.693728 24.076454 1.875044 
-29.906235 44.781757 -18.456341 -0.987534 -2.831610 4.648340 -16.988300 0.991934 -2.657190 20.625200 4.121090 -1.185790 14.572000 -14.457000 5.423400 12.236900 0.011990 3.265590 2.000000 -2.000000 0.000000 93.144203 -174.727997 -3.571430 32.539398 -0.330104 0.073596 0.049194 -0.037976 -150.613007 -2.000000 2.000000 0.000000 78.925201 -9.699540 155.662003 -40.000401 0.319579 0.087884 -0.056762 0.027430 -146.764999 -9.739202 -7.805310 21.229183 58.816570 1.254275 3.879216 12.752074 -6.608160 1.338958 -23.528278 2.283523 -4.492476 43.982414 -1.968352 -3.219445 0.990862 31.053564 -0.250663 
-30.602842 44.570351 -18.698877 -0.322873 -3.515570 5.322500 -17.265499 1.235160 -3.232210 20.605600 4.404300 -1.421280 13.896500 -15.049200 5.580980 11.982500 -0.229256 3.319540 2.000000 -2.000000 0.000000 92.812103 -173.544006 -4.554950 30.039400 -0.333201 0.068499 0.049324 -0.038508 -150.807999 -2.000000 2.000000 0.000000 79.003502 -10.695000 155.386993 -39.424198 0.320458 0.086826 -0.056943 0.028454 -147.136993 -7.694966 -9.500732 22.369286 52.955521 1.664719 3.592728 11.041497 -2.278522 0.104211 -24.306767 2.906360 -4.627240 43.318630 -1.944103 -3.216808 5.277335 35.300182 -2.495633 
-31.338995 44.329689 -18.964670 0.665994 -4.364940 6.188950 -17.415199 1.633040 -3.894810 20.899700 4.941320 -1.659170 13.696400 -15.319700 5.876330 12.050800 -0.277709 3.429620 2.000000 -2.000000 0.000000 93.035896 -171.936996 -2.568720 27.724899 -0.335868 0.063664 0.051417 -0.046156 -153.639999 -2.000000 2.000000 0.000000 79.080399 -10.634000 154.264008 -38.232800 0.322240 0.084611 -0.056818 0.027754 -146.882996 -6.436623 -10.923187 22.286558 46.678436 2.048753 3.253306 9.059713 3.094745 -0.994658 -25.572899 3.721560 -5.699537 42.676041 -1.894702 -3.224374 11.807813 36.590450 -6.150868 
-32.125023 44.125488 -19.336847 1.951250 -5.153280 7.451450 -17.758699 1.912380 -4.514560 20.968700 5.566260 -1.892860 13.219300 -15.023000 5.891710 11.924000 -0.200149 3.401940 2.000000 -2.000000 0.000000 92.674103 -170.363998 -3.150950 25.820601 -0.337915 0.059607 0.051971 -0.047960 -154.313995 -2.000000 2.000000 0.000000 79.333702 -11.032800 153.501007 -36.846100 0.324256 0.081988 -0.056587 0.026406 -146.393997 -5.880181 -12.245900 20.636959 40.848564 2.354793 2.917115 10.522157 2.375627 -1.127214 -27.417727 4.494346 -7.577257 42.407829 -1.807908 -3.257295 11.861679 36.434658 -5.973680 
-32.954754 43.942963 -19.775978 3.070490 -5.441440 9.161140 -18.066999 1.787960 -5.016830 20.762899 6.142540 -2.164510 12.570000 -14.485900 5.961090 11.738500 -0.141790 3.420240 2.000000 -2.000000 0.000000 -88.642899 -10.638900 170.024994 26.015900 -0.337711 0.060027 0.047461 -0.029986 -147.692993 -2.000000 2.000000 0.000000 80.348198 -11.577100 152.307999 -36.172298 0.325213 0.080695 -0.055991 0.022541 -144.998001 -5.592677 -13.622598 17.883648 37.796810 2.510765 2.718179 5.339036 3.308245 -1.648736 -29.597956 4.283502 -10.977411 43.375168 -1.679742 -3.339059 9.147252 36.040264 -4.319584 
-33.799763 43.767128 -20.286329 3.828070 -5.778180 10.932400 -18.016100 1.906800 -5.534320 20.704201 7.031230 -2.412510 11.299900 -13.448900 5.781140 11.299800 0.188331 3.248640 2.000000 -2.000000 0.000000 -88.351303 -12.579400 171.259995 24.785400 -0.338971 0.057374 0.048338 -0.034273 -149.255997 -2.000000 2.000000 0.000000 81.000999 -11.242500 151.098007 -34.717201 0.327226 0.077867 -0.055546 0.019152 -143.776993 -5.776447 -14.460690 14.307765 36.781742 2.572570 2.658873 -0.497508 5.730345 -1.920270 -32.201591 3.722847 -14.588463 45.597729 -1.524070 -3.506673 9.043826 34.122787 -4.039044 
